<svg width="808" height="164" viewBox="0 0 808 164" fill="none" xmlns="http://www.w3.org/2000/svg">
<path fill-rule="evenodd" clip-rule="evenodd" d="M129.475 33.944L129.475 33.9431L129.565 33.7858H109.732L109.822 33.9431L93.9278 61.651L93.9245 61.6451L84.0979 78.7756L84.1013 78.7815L72.5126 98.984H92.1656L93.9278 95.9119L93.9284 95.9128L103.755 78.7824L103.754 78.7815L119.648 51.0736L119.649 51.0745L129.475 33.944ZM129.075 123.274H109.623L98.7522 104.322L108.478 87.3671L129.075 123.274ZM68.0415 106.472L56.2036 85.8348H70.3302L79.2682 70.3559L79.2741 70.3662L85.6243 59.296H72.9239L79.2427 70.3114H56.9663L68.0709 50.9529H90.4179L100.161 33.7858H77.9436H58.2654H58.2456V33.8203L32.4796 78.7379L58.0265 123.274H58.2456H78.2324H100.524L90.8375 106.472H68.0415ZM134.173 115.342L124.347 98.2118L135.517 78.7379L124.473 59.4839L134.299 42.3534L145.344 61.6075L155.17 78.7379L145.344 95.8684L134.173 115.342Z" fill="#27AE60"/>
<path d="M252.535 89.1775H205.172V73.9331H252.535V89.1775ZM259.285 123.274H205.172C203.095 123.274 200.826 122.905 198.364 122.168C195.903 121.431 193.615 120.229 191.499 118.561C189.422 116.854 187.673 114.662 186.249 111.986C184.865 109.271 184.173 105.954 184.173 102.036V47.4592C184.173 46.4119 184.365 45.4227 184.75 44.4918C185.134 43.5608 185.653 42.7462 186.307 42.048C186.999 41.3498 187.807 40.8068 188.73 40.4189C189.653 40.031 190.653 39.837 191.73 39.837H259.285V54.965H199.172V102.036C199.172 104.014 199.691 105.527 200.73 106.575C201.768 107.622 203.287 108.146 205.287 108.146H259.285V123.274Z" fill="white"/>
<path d="M343.396 60.3761L316.455 90.0502L346.8 123.274H326.147L306.186 101.338L286.226 123.274H265.515L295.802 89.9339L268.976 60.3761H289.514L306.071 78.5879L322.743 60.3761H343.396Z" fill="white"/>
<path d="M423.411 123.274H408.412V88.3629C408.412 86.3846 408.066 84.6197 407.374 83.0681C406.72 81.4777 405.816 80.1201 404.662 78.9952C403.508 77.8703 402.143 77.0169 400.566 76.4351C399.028 75.8144 397.355 75.5041 395.547 75.5041H369.299V123.274H354.299V67.8819C354.299 66.8346 354.492 65.8649 354.876 64.9727C355.261 64.0418 355.799 63.2466 356.491 62.5871C357.184 61.8889 357.991 61.3459 358.914 60.958C359.837 60.5701 360.818 60.3761 361.857 60.3761H395.663C397.547 60.3761 399.528 60.5895 401.605 61.0162C403.72 61.4429 405.797 62.1411 407.835 63.1108C409.912 64.0418 411.873 65.2442 413.72 66.7182C415.604 68.1535 417.258 69.9184 418.681 72.013C420.142 74.0689 421.296 76.4544 422.142 79.1697C422.988 81.885 423.411 84.9494 423.411 88.3629V123.274Z" fill="white"/>
<path d="M504.408 102.036C504.408 104.635 504.081 106.982 503.427 109.077C502.773 111.132 501.908 112.956 500.831 114.546C499.754 116.097 498.504 117.436 497.081 118.561C495.658 119.647 494.158 120.539 492.581 121.237C491.043 121.935 489.466 122.459 487.851 122.808C486.274 123.118 484.774 123.274 483.351 123.274H456.294C454.218 123.274 451.949 122.905 449.487 122.168C447.026 121.431 444.737 120.229 442.622 118.561C440.545 116.854 438.795 114.662 437.372 111.986C435.988 109.271 435.295 105.954 435.295 102.036V81.5553C435.295 77.6763 435.988 74.3986 437.372 71.7221C438.795 69.0068 440.545 66.8152 442.622 65.1473C444.737 63.4405 447.026 62.2186 449.487 61.4816C451.949 60.7446 454.218 60.3761 456.294 60.3761H483.351C487.197 60.3761 490.466 61.0744 493.158 62.4708C495.85 63.8672 498.023 65.6321 499.677 67.7656C501.331 69.8602 502.523 72.1488 503.254 74.6313C504.023 77.1139 504.408 79.4219 504.408 81.5553V102.036ZM489.408 81.6717C489.408 79.577 488.889 78.0254 487.851 77.0169C486.812 76.0084 485.312 75.5041 483.351 75.5041H456.41C454.41 75.5041 452.891 76.0278 451.852 77.0751C450.814 78.0836 450.295 79.577 450.295 81.5553V102.036C450.295 104.014 450.814 105.527 451.852 106.575C452.891 107.622 454.41 108.146 456.41 108.146H483.351C485.389 108.146 486.908 107.622 487.908 106.575C488.908 105.527 489.408 104.014 489.408 102.036V81.6717Z" fill="white"/>
<path d="M585.635 102.036C585.635 104.635 585.308 106.982 584.654 109.077C584 111.132 583.135 112.956 582.058 114.546C580.981 116.097 579.731 117.436 578.308 118.561C576.885 119.647 575.385 120.539 573.808 121.237C572.27 121.935 570.693 122.459 569.078 122.808C567.501 123.118 566.001 123.274 564.578 123.274H537.521C534.945 123.274 532.637 122.944 530.599 122.284C528.56 121.625 526.753 120.752 525.176 119.666C523.637 118.541 522.311 117.261 521.195 115.826C520.118 114.391 519.234 112.897 518.542 111.346C517.849 109.755 517.33 108.165 516.984 106.575C516.676 104.945 516.522 103.433 516.522 102.036V81.5553C516.522 77.6763 517.215 74.3986 518.599 71.7221C520.022 69.0068 521.772 66.8152 523.849 65.1473C525.964 63.4405 528.253 62.2186 530.714 61.4816C533.175 60.7446 535.445 60.3761 537.521 60.3761H564.578V75.5041H537.637C535.637 75.5041 534.118 76.0278 533.079 77.0751C532.041 78.0836 531.522 79.577 531.522 81.5553V101.92C531.522 103.976 532.022 105.527 533.022 106.575C534.06 107.622 535.56 108.146 537.521 108.146H564.578C566.616 108.146 568.135 107.622 569.135 106.575C570.135 105.527 570.635 104.014 570.635 102.036V33.7858H585.635V102.036Z" fill="white"/>
<path d="M667.035 81.2062C667.035 83.3008 666.669 85.57 665.938 88.0138C665.208 90.4187 664.015 92.6685 662.362 94.7632C660.746 96.819 658.612 98.5452 655.958 99.9416C653.343 101.338 650.151 102.036 646.382 102.036H619.325V87.6647H646.382C648.42 87.6647 649.997 87.044 651.112 85.8028C652.228 84.5227 652.785 82.9517 652.785 81.0898C652.785 79.1115 652.151 77.56 650.881 76.4351C649.651 75.3102 648.151 74.7477 646.382 74.7477H619.325C617.287 74.7477 615.71 75.3877 614.595 76.6678C613.479 77.9091 612.922 79.4606 612.922 81.3226V102.444C612.922 104.461 613.537 106.032 614.768 107.156C616.037 108.281 617.595 108.844 619.441 108.844H646.382V123.274H619.325C617.248 123.274 614.999 122.905 612.576 122.168C610.191 121.431 607.96 120.248 605.884 118.619C603.845 116.951 602.134 114.798 600.749 112.16C599.365 109.484 598.672 106.245 598.672 102.444V81.2062C598.672 79.1115 599.038 76.8617 599.768 74.4568C600.499 72.013 601.672 69.7632 603.288 67.7074C604.941 65.6127 607.076 63.8672 609.691 62.4708C612.345 61.0744 615.556 60.3761 619.325 60.3761H646.382C648.458 60.3761 650.689 60.7446 653.074 61.4816C655.497 62.2186 657.727 63.4211 659.766 65.0891C661.842 66.7182 663.573 68.8711 664.958 71.5476C666.342 74.1853 667.035 77.4048 667.035 81.2062Z" fill="white"/>
<path d="M737.416 102.036C737.416 104.635 737.089 106.982 736.435 109.077C735.781 111.132 734.916 112.956 733.839 114.546C732.762 116.097 731.512 117.436 730.089 118.561C728.666 119.647 727.166 120.539 725.589 121.237C724.051 121.935 722.474 122.459 720.859 122.808C719.282 123.118 717.782 123.274 716.359 123.274H675.746V108.146H716.244C718.282 108.146 719.82 107.622 720.859 106.575C721.897 105.527 722.417 104.014 722.417 102.036C722.224 98.0021 720.205 95.985 716.359 95.985H693.11C689.803 95.985 686.995 95.4032 684.688 94.2395C682.38 93.0758 680.495 91.6212 679.034 89.8757C677.611 88.1301 676.573 86.2488 675.919 84.2318C675.303 82.2147 674.996 80.3334 674.996 78.5879C674.996 75.2132 675.592 72.3815 676.784 70.0929C677.976 67.7656 679.476 65.8843 681.284 64.4491C683.091 63.0138 685.053 61.9859 687.168 61.3653C689.283 60.7058 691.264 60.3761 693.11 60.3761H729.974V75.5041H693.226C692.456 75.5041 691.841 75.6011 691.38 75.795C690.956 75.9502 690.63 76.1829 690.399 76.4932C690.207 76.7648 690.091 77.0751 690.053 77.4242C690.014 77.7345 689.995 78.0448 689.995 78.3551C690.033 78.9758 690.149 79.4606 690.341 79.8098C690.533 80.1589 690.764 80.411 691.033 80.5662C691.341 80.7213 691.668 80.8183 692.014 80.8571C692.399 80.8571 692.764 80.8571 693.11 80.8571H716.359C720.205 80.8571 723.474 81.5553 726.166 82.9517C728.859 84.3481 731.031 86.1131 732.685 88.2465C734.339 90.3411 735.531 92.6297 736.262 95.1123C737.031 97.5948 737.416 99.9028 737.416 102.036Z" fill="white"/>
</svg>
